<?xml version="1.0" standalone="no"?>
<!DOCTYPE svg PUBLIC "-//W3C//DTD SVG 20010904//EN"
 "http://www.w3.org/TR/2001/REC-SVG-20010904/DTD/svg10.dtd">
<svg version="1.0" xmlns="http://www.w3.org/2000/svg"
 width="480.000000pt" height="360.000000pt" viewBox="0 0 480.000000 360.000000"
 preserveAspectRatio="xMidYMid meet">

<g transform="translate(0.000000,360.000000) scale(0.100000,-0.100000)"
fill="#000000" stroke="none">
<path d="M1928 2483 l-458 -3 -42 -67 -42 -67 -13 31 c-16 39 -64 80 -111 93
-39 10 -532 15 -532 4 0 -3 15 -33 34 -67 l33 -62 -29 -165 c-16 -91 -32 -184
-35 -207 l-6 -43 44 0 44 0 -40 -23 c-38 -22 -40 -26 -37 -64 3 -39 1 -42 -27
-48 l-31 -7 0 -103 0 -103 35 -6 c32 -6 34 -9 25 -32 -17 -43 -12 -50 70 -98
l81 -47 33 26 33 25 17 -25 c9 -14 21 -25 27 -25 5 0 46 21 90 46 l80 47 -6
41 -6 41 20 -36 c29 -52 92 -103 152 -122 72 -24 201 -22 281 3 34 11 64 20
66 20 1 0 2 -7 2 -15 0 -13 37 -15 278 -15 l277 0 23 36 c23 35 23 35 89 32
66 -3 67 -3 75 -35 l9 -33 183 0 184 0 12 71 c7 39 15 68 18 64 4 -3 23 -34
42 -68 l36 -62 214 0 215 0 12 69 c7 38 15 71 17 74 10 10 28 -13 61 -79 l35
-69 150 0 c83 0 150 3 150 8 0 4 -36 74 -80 157 -44 82 -80 152 -80 156 0 4
12 17 26 28 24 19 40 21 180 21 151 0 154 0 159 23 6 26 75 422 75 430 0 3 37
7 83 9 l82 3 17 95 c9 52 17 105 17 118 l1 22 -584 0 -583 0 -7 -52 c-13 -98
-13 -98 -62 -98 -42 0 -43 1 -38 28 2 15 8 48 13 75 l8 47 -132 0 c-121 0
-133 -2 -138 -19 -4 -18 -7 -17 -73 5 -56 19 -87 23 -164 21 -52 -1 -301 -3
-552 -4z m711 -82 c47 -24 81 -72 81 -113 l0 -28 -84 0 c-81 0 -84 1 -90 25
-6 24 -9 25 -85 25 l-79 0 -36 -50 c-42 -58 -42 -63 -16 -124 l19 -46 74 0
c70 0 74 1 95 30 22 29 25 30 101 30 73 0 79 -1 74 -19 -9 -34 -71 -98 -117
-121 -58 -27 -196 -38 -263 -20 -122 33 -168 124 -129 254 28 94 107 160 209
177 86 13 198 4 246 -20z m-405 -3 c-70 -84 -75 -88 -134 -88 l-57 0 -27 -132
c-15 -73 -29 -143 -32 -155 -4 -21 -10 -23 -64 -23 -41 0 -60 4 -60 13 0 6 9
66 20 132 29 176 32 164 -46 167 l-67 3 -13 44 c-7 25 -11 48 -8 53 3 4 118 8
256 8 l251 0 -19 -22z m-950 -17 c21 -20 26 -34 26 -75 0 -62 -26 -108 -72
-132 -18 -9 -34 -18 -36 -19 -1 -1 14 -37 33 -79 19 -42 35 -79 35 -82 0 -2
-33 -4 -74 -4 l-74 0 -46 109 c-25 60 -46 111 -46 115 0 3 21 6 46 6 61 0 84
14 84 49 0 36 -13 41 -100 41 l-68 0 -12 -67 c-6 -38 -18 -110 -27 -160 l-17
-93 -66 0 -67 0 12 73 c6 39 20 120 31 179 15 86 16 114 7 139 l-12 30 209 -3
c205 -3 209 -3 234 -27z m462 -171 c30 -107 54 -201 54 -207 0 -9 -20 -13 -69
-13 l-69 0 -6 35 -7 35 -80 0 c-75 0 -80 1 -91 25 -6 14 -15 25 -19 25 -4 0
-24 -27 -44 -60 -28 -47 -42 -60 -60 -60 -25 0 -55 41 -55 76 0 10 37 76 83
148 46 72 92 146 103 164 l19 33 94 -3 94 -3 53 -195z m1159 178 c-14 -64 -25
-114 -25 -120 0 -5 51 -8 114 -8 l114 0 7 43 c3 23 9 57 12 75 l5 32 68 0 c60
0 68 -2 64 -17 -6 -24 -74 -383 -74 -389 0 -2 -28 -4 -61 -4 l-61 0 6 48 c4
26 10 62 13 80 l5 32 -115 0 -115 0 -7 -37 c-3 -21 -11 -59 -17 -85 l-10 -48
-60 0 -61 0 7 38 c3 20 18 115 33 210 l27 172 68 0 c66 0 68 -1 63 -22z m1258
-5 c-12 -78 -6 -73 -93 -73 -91 0 -80 16 -109 -155 -32 -183 -21 -165 -96
-165 l-64 0 5 28 c2 15 15 87 27 160 l23 132 -218 0 -218 0 0 -30 0 -30 135 0
135 0 0 -29 c0 -61 0 -61 -150 -61 -134 0 -138 -1 -144 -22 -13 -49 -14 -48
139 -48 l145 0 0 -29 c0 -63 8 -61 -224 -61 l-213 0 33 198 c19 108 34 200 34
205 0 4 193 7 429 7 l428 0 -4 -27z m-2468 -498 c44 -22 85 -76 85 -111 0 -23
-3 -24 -83 -24 -76 0 -83 2 -92 23 -9 19 -18 22 -81 25 l-72 3 -41 -48 c-46
-53 -48 -72 -17 -145 l16 -38 69 0 c67 0 69 1 95 35 27 35 27 35 107 35 43 0
79 -2 79 -5 0 -14 -40 -82 -56 -96 -88 -77 -275 -100 -382 -47 -66 33 -92 75
-92 152 0 116 74 216 183 249 75 23 229 19 282 -8z m265 3 c0 -7 -11 -78 -24
-158 -13 -80 -21 -149 -17 -153 4 -4 50 -6 102 -5 l94 3 108 163 108 162 87 0
88 0 60 -210 61 -211 -76 3 c-71 3 -75 4 -81 28 -6 24 -10 25 -88 28 -78 3
-82 4 -88 28 -9 35 -24 26 -59 -34 l-30 -52 -223 0 c-208 0 -223 1 -218 18 3
9 17 82 31 162 15 80 31 166 36 193 l11 47 59 0 c41 0 59 -4 59 -12z m955
-108 c39 -66 73 -120 76 -120 8 0 12 17 34 143 l17 97 64 0 c77 0 74 21 30
-230 l-32 -185 -81 -3 -81 -3 -67 116 c-37 63 -71 117 -75 120 -11 7 -16 -9
-35 -128 l-18 -107 -37 0 -38 0 -18 66 c-17 64 -17 70 1 181 15 89 16 121 8
144 l-11 29 97 0 97 0 69 -120z m431 80 c-3 -22 -9 -58 -12 -80 -4 -22 -3 -40
2 -40 5 0 54 36 109 80 l100 79 78 1 79 0 -91 -70 c-50 -39 -91 -75 -91 -81 0
-6 26 -58 59 -117 32 -59 64 -117 70 -129 12 -23 12 -23 -72 -23 l-83 0 -44
90 c-24 50 -47 90 -50 90 -4 0 -28 -16 -53 -36 -36 -28 -48 -45 -53 -73 -12
-73 -10 -71 -80 -71 -45 0 -64 4 -64 13 0 6 16 97 35 201 19 104 35 193 35
198 0 4 30 8 66 8 l67 0 -7 -40z m-2436 15 c7 -8 25 -15 41 -15 15 0 34 7 43
15 19 20 35 19 74 -5 26 -16 31 -24 26 -44 -7 -31 23 -86 48 -86 15 0 18 -9
18 -55 0 -47 -3 -55 -19 -55 -26 0 -54 -46 -48 -79 5 -23 0 -30 -35 -49 -36
-22 -41 -22 -57 -8 -21 19 -73 21 -101 4 -15 -10 -26 -9 -54 5 -31 14 -36 22
-36 50 0 40 -24 77 -51 77 -16 0 -19 7 -19 55 0 47 3 55 19 55 25 0 51 42 51
83 0 28 6 36 33 50 41 20 52 21 67 2z"/>
<path d="M1531 2239 c-23 -35 -41 -70 -41 -76 0 -9 20 -13 65 -13 36 0 65 2
65 5 0 15 -34 131 -41 139 -4 5 -26 -20 -48 -55z"/>
<path d="M2348 1719 c-21 -33 -38 -65 -38 -70 0 -5 29 -9 64 -9 l65 0 -20 67
c-10 38 -19 69 -19 70 0 2 -3 3 -7 3 -5 0 -25 -27 -45 -61z"/>
<path d="M965 1789 c-4 -6 -19 -7 -35 -4 -35 8 -71 -10 -64 -30 4 -9 1 -22 -6
-30 -16 -20 2 -65 26 -65 11 0 14 -5 10 -16 -11 -29 11 -51 59 -59 50 -7 75 5
75 35 0 10 9 24 20 31 14 10 17 18 11 29 -9 12 -15 12 -46 -3 -41 -20 -45 -20
-45 -8 0 5 9 13 20 16 11 3 20 13 20 21 0 19 -28 30 -43 15 -13 -13 -27 -15
-27 -3 0 5 15 17 34 27 29 16 33 22 25 37 -11 20 -25 23 -34 7z"/>
<path d="M2246 1283 c7 -51 -15 -110 -72 -190 -34 -48 -53 -65 -76 -70 l-31
-6 22 -19 c33 -26 46 -23 95 22 54 50 116 168 116 222 0 49 -15 78 -40 78 -18
0 -19 -5 -14 -37z"/>
<path d="M1240 1175 c0 -58 2 -65 20 -65 11 0 20 7 20 15 0 10 11 15 35 15 24
0 35 -5 35 -15 0 -8 8 -15 18 -15 15 0 18 9 19 55 2 66 -9 75 -91 75 l-56 0 0
-65z m110 15 c0 -5 -16 -10 -35 -10 -19 0 -35 5 -35 10 0 6 16 10 35 10 19 0
35 -4 35 -10z"/>
<path d="M1530 1174 c0 -57 2 -64 20 -64 18 0 20 7 20 59 0 50 -3 59 -20 64
-18 5 -20 0 -20 -59z"/>
<path d="M1717 1234 c-4 -4 -7 -34 -7 -66 0 -51 2 -58 20 -58 13 0 20 7 20 19
0 16 8 20 43 23 60 4 58 31 -3 39 l-45 6 48 1 c40 2 48 5 45 20 -2 13 -15 18
-58 20 -31 2 -59 0 -63 -4z"/>
<path d="M1970 1220 c0 -15 7 -20 25 -20 23 0 25 -4 25 -45 0 -32 4 -45 14
-45 17 0 26 22 26 61 0 22 5 29 20 29 13 0 20 7 20 20 0 18 -7 20 -65 20 -58
0 -65 -2 -65 -20z"/>
<path d="M2401 1183 c-36 -67 -37 -73 -11 -73 11 0 20 5 20 10 0 6 20 10 45
10 25 0 45 -4 45 -10 0 -5 9 -10 20 -10 26 0 25 8 -7 66 -46 84 -70 86 -112 7z
m69 -15 c0 -5 -7 -8 -15 -8 -15 0 -20 21 -8 33 7 7 23 -11 23 -25z"/>
<path d="M2966 1178 c-35 -62 -35 -63 -14 -66 12 -2 24 1 26 7 5 14 79 15 87
1 7 -12 45 -14 45 -2 0 4 -15 32 -33 62 -46 78 -66 78 -111 -2z m63 -7 c-15
-5 -22 6 -14 19 6 9 10 9 16 -1 5 -8 4 -15 -2 -18z"/>
<path d="M3247 1233 c-4 -3 -7 -33 -7 -65 0 -51 2 -58 20 -58 11 0 20 7 20 15
0 10 11 15 35 15 24 0 35 -5 35 -15 0 -8 9 -15 20 -15 18 0 20 7 20 59 0 44
-4 60 -16 65 -21 8 -119 8 -127 -1z m103 -43 c0 -5 -16 -10 -35 -10 -19 0 -35
5 -35 10 0 6 16 10 35 10 19 0 35 -4 35 -10z"/>
<path d="M3530 1220 c0 -15 7 -20 25 -20 23 0 25 -4 25 -45 0 -33 4 -45 15
-45 11 0 15 12 15 45 0 41 2 45 25 45 18 0 25 5 25 20 0 18 -7 20 -65 20 -58
0 -65 -2 -65 -20z"/>
<path d="M2680 1170 c0 -45 4 -60 14 -60 8 0 16 7 20 15 3 10 19 15 44 15 46
0 65 18 60 57 -3 27 -5 28 -70 31 l-68 3 0 -61z m100 20 c0 -5 -13 -10 -30
-10 -16 0 -30 5 -30 10 0 6 14 10 30 10 17 0 30 -4 30 -10z"/>
</g>
</svg>
